# xmcd
#
# Track frame offsets: 
#        150
#        12985
#        25717
#        38122
#        51275
#        62925
#        76047
#        87827
#        101110
#        112187
#        123595
#        135622
#        148385
#        160410
#        173315
#        184895
#        196437
#        207709
#        220092
#        233147
#        244605
#        258417
#        270900
#        283035
#        294247
#        307000
#
# Disc length: 4253 seconds
#
# Revision: 2
# Processed by: cddbd v1.5.2PL0 Copyright (c) Steve Scherf et al.
# Submitted via: ExactAudioCopy v0.95b4
#
DISCID=81109b1a
DTITLE=Chet Atkins - High Rockin' Swing [CD 1)
DYEAR=2004
DGENRE=Country
TTITLE0=Guitar Blues (Picking the Blues)
TTITLE1=Brown Eyes Cryin' In The Rain
TTITLE2=Ain'tcha Tired of Makin' Me Blue
TTITLE3=I'm Gonna Get Tight
TTITLE4=Canned Heat
TTITLE5=Standing Room Only
TTITLE6=Don't Hand Me That Line
TTITLE7=Big Dance
TTITLE8=(I Know My Baby Love Me) In Her Own Peculiar Way
TTITLE9=The Nashville Jump
TTITLE10=My Guitar Is My Sweetheart
TTITLE11=I'm Pickin' The Blues
TTITLE12=Gone, Gone, Gone
TTITLE13=Barnyard Shuffle
TTITLE14=Save Your Money
TTITLE15=(I May Be Color Blind But) I Know When I'm Blue
TTITLE16=I've Been Working On The Guitar
TTITLE17=Dizzy Strings
TTITLE18=Money, Marbles and Chalk
TTITLE19=Wednesday Night Waltz
TTITLE20=Guitar Waltz
TTITLE21=Telling My Troubles to My Old Guitar
TTITLE22=Dance of the Goldenrod
TTITLE23=Galloping Guitar
TTITLE24=Barber Shop Rag
TTITLE25=Centipede Boogie
EXTD=
EXTT0=
EXTT1=
EXTT2=
EXTT3=
EXTT4=
EXTT5=
EXTT6=
EXTT7=
EXTT8=
EXTT9=
EXTT10=
EXTT11=
EXTT12=
EXTT13=
EXTT14=
EXTT15=
EXTT16=
EXTT17=
EXTT18=
EXTT19=
EXTT20=
EXTT21=
EXTT22=
EXTT23=
EXTT24=
EXTT25=
PLAYORDER=
